<?xml version="1.0" encoding="utf-8"?>
<svg xmlns="http://www.w3.org/2000/svg" style="margin: auto; display: block; shape-rendering: auto; animation-play-state: running; animation-delay: 0s;" width="260" height="170" preserveAspectRatio="xMidYMid">
<style type="text/css" style="animation-play-state: running; animation-delay: 0s;">
  text {
    text-anchor: middle; font-size: 66px; opacity: 0;
  }
</style>
<g transform="translate(130,85)" style="animation-play-state: running; animation-delay: 0s;">
  <g transform="translate(0,0)" style="animation-play-state: running; animation-delay: 0s;"><g class="path" style="transform-origin: -65.5401px -2.17715px; transform: matrix(1, 0, 0, 1, 0, 0); animation: 1.88679s linear -1.06739s infinite normal forwards running bounce-c8ab029c-ab6a-4b81-92b0-57e205e6338f;"><path d="M57.82-3.43L57.82-3.43Q54.71 0.20 49.47 2.38L49.47 2.38L49.47 2.38Q44.22 4.55 38.71 4.55L38.71 4.55L38.71 4.55Q33.20 4.55 29.37 3.50L29.37 3.50L29.37 3.50Q24.82 6.73 19.67 6.73L19.67 6.73L19.67 5.48L19.67 5.48Q22.24 5.41 23.40 4.79L23.40 4.79L23.40 4.79Q24.55 4.16 25.41 2.11L25.41 2.11L25.41 2.11Q21.98 0.59 19.40-1.75L19.40-1.75L19.40-1.75Q16.83-4.09 15.94-5.54L15.94-5.54L15.94-5.54Q15.05-7.00 15.05-7.26L15.05-7.26L16.24-7.72L16.24-7.72Q16.24-7.46 17.06-6.14L17.06-6.14L17.06-6.14Q17.89-4.82 20.30-2.61L20.30-2.61L20.30-2.61Q22.70-0.40 25.87 0.99L25.87 0.99L25.87 0.99Q26.80-1.32 27.39-4.75L27.39-4.75L33.26-38.68L33.26-38.68Q26.40-38.15 21.12-35.97L21.12-35.97L21.12-35.97Q25.61-31.22 25.61-24.62L25.61-24.62L25.61-24.62Q25.61-18.55 22.34-14.88L22.34-14.88L22.34-14.88Q19.07-11.22 15.11-11.22L15.11-11.22L15.11-11.22Q11.15-11.22 9.04-13.63L9.04-13.63L9.04-13.63Q6.93-16.04 6.93-19.34L6.93-19.34L6.93-19.34Q6.93-24.49 9.83-29.01L9.83-29.01L9.83-29.01Q12.74-33.53 18.81-36.43L18.81-36.43L18.81-36.43Q14.45-40.13 7.33-41.32L7.33-41.32L7.59-42.57L7.59-42.57Q15.58-41.12 20.06-36.96L20.06-36.96L20.06-36.96Q28.05-40.19 39.57-40.19L39.57-40.19L39.57-40.19Q51.08-40.19 57.68-34.95L57.68-34.95L57.68-34.95Q64.28-29.70 64.28-20.33L64.28-20.33L64.28-20.33Q64.28-10.76 57.82-3.43L57.82-3.43zM37.62 3.37L37.62 3.37L37.62 3.37Q43.89 3.37 48.91 1.29L48.91 1.29L48.91 1.29Q53.92-0.79 56.89-4.22L56.89-4.22L56.89-4.22Q63.03-11.22 63.03-19.90L63.03-19.90L63.03-19.90Q63.03-28.58 57.35-33.46L57.35-33.46L57.35-33.46Q51.68-38.35 41.51-38.87L41.51-38.87L41.51-38.87Q38.28-17.03 36.43-7.46L36.43-7.46L36.43-7.46Q35.24-1.39 30.62 2.57L30.62 2.57L30.62 2.57Q34.12 3.37 37.62 3.37zM8.18-19.34L8.18-19.34L8.18-19.34Q8.18-16.63 9.93-14.55L9.93-14.55L9.93-14.55Q11.68-12.47 15.15-12.47L15.15-12.47L15.15-12.47Q18.61-12.47 21.25-15.51L21.25-15.51L21.25-15.51Q23.89-18.55 24.29-23.23L24.29-23.23L24.29-23.23Q24.35-24.09 24.35-24.95L24.35-24.95L24.35-24.95Q24.35-30.89 19.80-35.44L19.80-35.44L19.80-35.44Q13.86-32.74 11.02-28.48L11.02-28.48L11.02-28.48Q8.18-24.22 8.18-19.34" fill="#2bde73" stroke="none" stroke-width="none" transform="translate(-101.14504432678223,15.742852845873156)" style="fill: rgb(2, 6, 33); animation-play-state: running; animation-delay: 0s;"></path></g><g class="path" style="transform-origin: -23.3001px -19.6621px; transform: matrix(1, 0, 0, 1, 0, 0); animation: 1.88679s linear -0.889488s infinite normal forwards running bounce-c8ab029c-ab6a-4b81-92b0-57e205e6338f;"><path d="M74.45-32.01L74.45-32.01L74.45-32.01Q73.06-33.40 73.06-35.38L73.06-35.38L73.06-35.38Q73.06-37.36 74.45-38.77L74.45-38.77L74.45-38.77Q75.83-40.19 77.81-40.19L77.81-40.19L77.81-40.19Q79.79-40.19 81.21-38.77L81.21-38.77L81.21-38.77Q82.63-37.36 82.63-35.38L82.63-35.38L82.63-35.38Q82.63-33.40 81.21-32.01L81.21-32.01L81.21-32.01Q79.79-30.62 77.81-30.62L77.81-30.62L77.81-30.62Q75.83-30.62 74.45-32.01" fill="#2bde73" stroke="none" stroke-width="none" transform="translate(-101.14504432678223,15.742852845873156)" style="fill: rgb(43, 222, 115); animation-play-state: running; animation-delay: 0s;"></path></g><g class="path" style="transform-origin: -31.2201px 8.97785px; transform: matrix(1, 0, 0, 1, 0, 0); animation: 1.88679s linear -0.71159s infinite normal forwards running bounce-c8ab029c-ab6a-4b81-92b0-57e205e6338f;"><path d="M69.50-25.08L72.34-25.08L72.34-25.08Q77.22-25.08 79.60-25.48L79.60-25.48L80.45-25.67L80.45-25.67Q79.79-22.11 78.31-13.83L78.31-13.83L78.31-13.83Q76.82-5.54 76.16-1.98L76.16-1.98L76.16-1.98Q74.91 5.08 71.64 8.61L71.64 8.61L71.64 8.61Q68.38 12.14 62.44 12.14L62.44 12.14L62.44 12.14Q60.46 12.14 59.40 11.55L59.40 11.55L59.86 10.30L59.86 10.30Q60.98 10.89 62.67 10.89L62.67 10.89L62.67 10.89Q64.35 10.89 65.27 9.67L65.27 9.67L65.27 9.67Q66.20 8.45 66.86 4.95L66.86 4.95L66.86 4.95Q69.17-7.52 72.20-23.89L72.20-23.89L69.37-23.89L69.50-25.08" fill="#2bde73" stroke="none" stroke-width="none" transform="translate(-101.14504432678223,15.742852845873156)" style="fill: rgb(2, 6, 33); animation-play-state: running; animation-delay: 0s;"></path></g><g class="path" style="transform-origin: -3.86005px 3.20285px; transform: matrix(1, 0, 0, 1, 0, 0); animation: 1.88679s linear -0.533693s infinite normal forwards running bounce-c8ab029c-ab6a-4b81-92b0-57e205e6338f;"><path d="M106.33 0.59L106.33 0.59L106.33 0.59Q100.52 0.59 99.99-4.49L99.99-4.49L99.99-4.49Q97.09 0.59 92.66 0.59L92.66 0.59L92.66 0.59Q88.24 0.59 85.64-2.08L85.64-2.08L85.64-2.08Q83.03-4.75 83.03-9.57L83.03-9.57L83.03-9.57Q83.03-17.09 86.72-21.38L86.72-21.38L86.72-21.38Q90.42-25.67 96.29-25.67L96.29-25.67L96.29-25.67Q101.11-25.67 102.70-21.12L102.70-21.12L102.70-21.12Q103.03-23.10 103.42-25.08L103.42-25.08L103.42-25.08Q108.31-25.08 110.68-25.48L110.68-25.48L111.54-25.67L106.99-0.73L106.99-0.73Q108.97-0.92 110.29-2.57L110.29-2.57L111.28-1.78L111.28-1.78Q109.30 0.59 106.33 0.59zM90.49-6.20L90.49-6.20Q90.49-3.23 91.25-2.08L91.25-2.08L91.25-2.08Q92.00-0.92 93.59-0.92L93.59-0.92L93.59-0.92Q95.17-0.92 96.82-2.64L96.82-2.64L96.82-2.64Q99-4.88 100.32-8.32L100.32-8.32L100.32-8.32Q100.52-9.17 101.08-12.44L101.08-12.44L101.08-12.44Q101.64-15.71 102.04-17.82L102.04-17.82L102.04-17.82Q101.84-20.33 100.65-22.18L100.65-22.18L100.65-22.18Q99.46-24.02 97.68-24.02L97.68-24.02L97.68-24.02Q94.45-24.02 92.47-18.25L92.47-18.25L92.47-18.25Q90.49-12.47 90.49-6.20L90.49-6.20" fill="#2bde73" stroke="none" stroke-width="none" transform="translate(-101.14504432678223,15.742852845873156)" style="fill: rgb(43, 222, 115); animation-play-state: running; animation-delay: 0s;"></path></g><g class="path" style="transform-origin: 37.0599px 3.20285px; transform: matrix(1, 0, 0, 1, 0, 0); animation: 1.88679s linear -0.355795s infinite normal forwards running bounce-c8ab029c-ab6a-4b81-92b0-57e205e6338f;"><path d="M140.12-0.73L140.12-0.73L140.12-0.73Q141.70-0.73 143.42-2.57L143.42-2.57L144.41-1.78L144.41-1.78Q143.95-0.86 142.36-0.13L142.36-0.13L142.36-0.13Q140.78 0.59 138.86 0.59L138.86 0.59L138.86 0.59Q132.86 0.59 132.86-4.82L132.86-4.82L132.86-4.82Q132.86-7.13 134.05-13.07L134.05-13.07L134.05-13.07Q135.23-19.01 135.23-20.86L135.23-20.86L135.23-20.86Q135.23-23.69 132.53-23.69L132.53-23.69L132.53-23.69Q128.44-23.69 125.66-13.20L125.66-13.20L123.29 0L115.37 0L119.72-24.35L119.72-24.35Q117.74-24.16 116.42-22.51L116.42-22.51L115.43-23.30L115.43-23.30Q117.41-25.67 120.42-25.67L120.42-25.67L120.42-25.67Q123.42-25.67 125.07-24.16L125.07-24.16L125.07-24.16Q126.72-22.64 126.72-19.87L126.72-19.87L126.72-19.67L126.72-19.67Q129.29-25.67 134.51-25.67L134.51-25.67L134.51-25.67Q138.20-25.67 140.35-23.66L140.35-23.66L140.35-23.66Q142.49-21.65 142.69-18.02L142.69-18.02L142.69-18.02Q143.95-21.65 145.86-23.66L145.86-23.66L145.86-23.66Q147.77-25.67 151.40-25.67L151.40-25.67L151.40-25.67Q155.03-25.67 157.21-23.46L157.21-23.46L157.21-23.46Q159.39-21.25 159.39-17.36L159.39-17.36L159.39-17.36Q159.39-15.31 158.14-9.47L158.14-9.47L158.14-9.47Q156.88-3.63 156.75-0.73L156.75-0.73L156.75-0.73Q158.33-0.73 160.05-2.57L160.05-2.57L161.04-1.78L161.04-1.78Q160.58-0.86 158.99-0.13L158.99-0.13L158.99-0.13Q157.41 0.59 155.50 0.59L155.50 0.59L155.50 0.59Q149.49 0.59 149.49-4.82L149.49-4.82L149.49-4.82Q149.49-7.13 150.68-13.07L150.68-13.07L150.68-13.07Q151.87-19.01 151.87-20.86L151.87-20.86L151.87-20.86Q151.87-23.69 149.16-23.69L149.16-23.69L149.16-23.69Q144.41-23.69 141.50-9.57L141.50-9.57L141.50-9.57Q140.25-3.56 140.12-0.73" fill="#2bde73" stroke="none" stroke-width="none" transform="translate(-101.14504432678223,15.742852845873156)" style="fill: rgb(2, 6, 33); animation-play-state: running; animation-delay: 0s;"></path></g><g class="path" style="transform-origin: 74.3499px 3.20285px; transform: matrix(1, 0, 0, 1, 0, 0); animation: 1.88679s linear -0.177898s infinite normal forwards running bounce-c8ab029c-ab6a-4b81-92b0-57e205e6338f;"><path d="M178.40-25.67L178.40-25.67L178.40-25.67Q186.78-25.67 186.78-19.01L186.78-19.01L186.78-19.01Q186.78-14.85 182.85-12.71L182.85-12.71L182.85-12.71Q178.93-10.56 171.67-10.49L171.67-10.49L171.67-10.49Q171.53-8.12 171.53-6.73L171.53-6.73L171.53-6.73Q171.53-3.76 172.89-2.34L172.89-2.34L172.89-2.34Q174.24-0.92 176.29-0.92L176.29-0.92L176.29-0.92Q178.33-0.92 180.01-1.72L180.01-1.72L180.01-1.72Q181.70-2.51 182.69-3.60L182.69-3.60L182.69-3.60Q183.68-4.69 184.40-5.87L184.40-5.87L184.40-5.87Q185.72-8.05 185.72-8.65L185.72-8.65L186.91-8.12L186.91-8.12Q186.71-7.06 185.72-5.31L185.72-5.31L185.72-5.31Q184.73-3.56 183.55-2.44L183.55-2.44L183.55-2.44Q182.36-1.32 180.05-0.36L180.05-0.36L180.05-0.36Q177.74 0.59 174.90 0.59L174.90 0.59L174.90 0.59Q169.55 0.59 166.81-1.95L166.81-1.95L166.81-1.95Q164.08-4.49 164.08-8.91L164.08-8.91L164.08-8.91Q164.08-16.76 167.97-21.22L167.97-21.22L167.97-21.22Q171.86-25.67 178.40-25.67zM185.13-19.01L185.13-19.01Q185.13-21.19 183.84-22.61L183.84-22.61L183.84-22.61Q182.56-24.02 180.01-24.02L180.01-24.02L180.01-24.02Q177.47-24.02 175.06-20.99L175.06-20.99L175.06-20.99Q172.66-17.95 171.86-12.01L171.86-12.01L171.86-12.01Q185.13-12.08 185.13-19.01L185.13-19.01" fill="#2bde73" stroke="none" stroke-width="none" transform="translate(-101.14504432678223,15.742852845873156)" style="fill: rgb(43, 222, 115); animation-play-state: running; animation-delay: 0s;"></path></g><g class="path" style="transform-origin: 98.7349px -5.34712px; transform: matrix(1, 0, 0, 1, 0, 0); animation: 1.88679s linear 0s infinite normal forwards running bounce-c8ab029c-ab6a-4b81-92b0-57e205e6338f;"><path d="M202.42-2.38L202.42-2.38L202.42-2.38Q201.56-1.25 200.08-0.33L200.08-0.33L200.08-0.33Q198.59 0.59 196.22 0.59L196.22 0.59L196.22 0.59Q193.84 0.59 192.19-0.92L192.19-0.92L192.19-0.92Q190.54-2.44 190.54-5.21L190.54-5.21L190.54-5.21Q190.54-5.74 190.67-6.93L190.67-6.93L194.96-30.69L194.96-30.69Q196.15-37.22 198.23-40.00L198.23-40.00L198.23-40.00Q200.31-42.77 203.74-42.77L203.74-42.77L203.74-42.77Q206.12-42.77 207.67-40.99L207.67-40.99L207.67-40.99Q209.22-39.20 209.22-35.57L209.22-35.57L209.22-35.57Q209.22-31.94 206.41-25.21L206.41-25.21L206.41-25.21Q203.61-18.48 203.61-15.38L203.61-15.38L202.42-15.38L202.42-15.38Q202.42-18.88 205.19-25.38L205.19-25.38L205.19-25.38Q207.97-31.88 207.97-35.77L207.97-35.77L207.97-35.77Q207.97-38.15 206.88-39.86L206.88-39.86L206.88-39.86Q205.79-41.58 204.20-41.58L204.20-41.58L204.20-41.58Q204.14-39.86 201.93-26.17L201.93-26.17L201.93-26.17Q199.72-12.47 197.54-0.73L197.54-0.73L197.54-0.73Q199.39-0.73 200.97-2.64L200.97-2.64L200.97-2.64Q202.55-4.55 203.21-6.47L203.21-6.47L203.94-8.45L205.13-7.92L205.13-7.92Q204.93-7.00 204.10-5.25L204.10-5.25L204.10-5.25Q203.28-3.50 202.42-2.38" fill="#2bde73" stroke="none" stroke-width="none" transform="translate(-101.14504432678223,15.742852845873156)" style="fill: rgb(2, 6, 33); animation-play-state: running; animation-delay: 0s;"></path></g></g>
</g>
<style id="bounce-c8ab029c-ab6a-4b81-92b0-57e205e6338f" data-anikit="">@keyframes bounce-c8ab029c-ab6a-4b81-92b0-57e205e6338f
{
  0% {
    animation-timing-function: cubic-bezier(0.1361,0.2514,0.2175,0.8786);
    transform: translate(0,0px) scaleY(1);
  }
  37% {
    animation-timing-function: cubic-bezier(0.7674,0.1844,0.8382,0.7157);
    transform: translate(0,-39.96px) scaleY(1);
  }
  72% {
    animation-timing-function: cubic-bezier(0.1118,0.2149,0.2172,0.941);
    transform: translate(0,0px) scaleY(1);
  }
  87% {
    animation-timing-function: cubic-bezier(0.7494,0.2259,0.8209,0.6963);
    transform: translate(0,19.900000000000002px) scaleY(0.602);
  }
  100% {
    transform: translate(0,0px) scaleY(1);
  }
}</style><style id="bounce-c8ab029c-ab6a-4b81-92b0-57e205e6338f" data-anikit="">@keyframes bounce-c8ab029c-ab6a-4b81-92b0-57e205e6338f
{
  0% {
    animation-timing-function: cubic-bezier(0.1361,0.2514,0.2175,0.8786);
    transform: translate(0,0px) scaleY(1);
  }
  37% {
    animation-timing-function: cubic-bezier(0.7674,0.1844,0.8382,0.7157);
    transform: translate(0,-39.96px) scaleY(1);
  }
  72% {
    animation-timing-function: cubic-bezier(0.1118,0.2149,0.2172,0.941);
    transform: translate(0,0px) scaleY(1);
  }
  87% {
    animation-timing-function: cubic-bezier(0.7494,0.2259,0.8209,0.6963);
    transform: translate(0,19.900000000000002px) scaleY(0.602);
  }
  100% {
    transform: translate(0,0px) scaleY(1);
  }
}</style></svg>